<?xml version="1.0" encoding="UTF-8" standalone="no"?>
<svg
   id="svg"
   width="400"
   height="400"
   viewBox="0, 0, 400,400"
   version="1.1"
   sodipodi:docname="icon.svg"
   inkscape:export-filename="icon.png"
   inkscape:export-xdpi="96"
   inkscape:export-ydpi="96"
   inkscape:version="1.3 (0e150ed, 2023-07-21)"
   xmlns:inkscape="http://www.inkscape.org/namespaces/inkscape"
   xmlns:sodipodi="http://sodipodi.sourceforge.net/DTD/sodipodi-0.dtd"
   xmlns="http://www.w3.org/2000/svg"
   xmlns:svg="http://www.w3.org/2000/svg">
  <defs
     id="defs1" />
  <sodipodi:namedview
     id="namedview1"
     pagecolor="#505050"
     bordercolor="#ffffff"
     borderopacity="1"
     inkscape:showpageshadow="0"
     inkscape:pageopacity="0"
     inkscape:pagecheckerboard="1"
     inkscape:deskcolor="#505050"
     inkscape:zoom="0.59"
     inkscape:cx="179.66102"
     inkscape:cy="200"
     inkscape:window-width="1312"
     inkscape:window-height="477"
     inkscape:window-x="0"
     inkscape:window-y="43"
     inkscape:window-maximized="0"
     inkscape:current-layer="layer1" />
  <g
     inkscape:groupmode="layer"
     id="layer1"
     inkscape:label="Layer 1">
    <rect
       style="fill:#ffffff;stroke-width:0.899414"
       id="rect1"
       width="400"
       height="400"
       x="0"
       y="0" />
  </g>
  <g
     id="svgg"
     sodipodi:insensitive="true">
    <path
       id="path0"
       d="m 119.929,63.696 c -0.001,29.428 0.133,44.898 0.387,44.898 0.216,0 0.387,1.12 0.387,2.539 0,1.432 0.17,2.539 0.391,2.539 0.215,0 0.39,0.884 0.39,1.965 0,1.387 0.173,2.032 0.586,2.19 0.336,0.129 0.586,0.713 0.586,1.368 0,0.628 0.228,1.229 0.506,1.336 0.326,0.125 0.45,0.677 0.349,1.547 -0.115,0.984 0.013,1.417 0.47,1.593 0.346,0.132 0.628,0.647 0.628,1.143 0,0.496 0.171,0.961 0.38,1.032 0.208,0.072 0.436,0.482 0.505,0.912 0.189,1.171 1.564,4.101 1.925,4.101 0.173,0 0.315,0.44 0.315,0.977 0,0.537 0.176,0.977 0.391,0.977 0.215,0 0.391,0.244 0.391,0.544 0,0.299 0.263,0.645 0.586,0.769 0.322,0.123 0.586,0.479 0.586,0.791 0,0.706 1.263,2.968 1.66,2.971 0.161,0.002 0.293,0.266 0.293,0.589 0,0.322 0.263,0.586 0.586,0.586 0.322,0 0.586,0.325 0.586,0.724 0,0.398 0.439,1.198 0.976,1.778 0.537,0.579 0.977,1.239 0.977,1.466 0,0.226 0.254,0.314 0.566,0.195 0.364,-0.14 0.494,-0.03 0.364,0.308 -0.111,0.289 0.337,1.077 0.996,1.752 0.659,0.674 1.199,1.395 1.199,1.602 0,0.208 0.263,0.378 0.586,0.378 0.322,0 0.586,0.188 0.586,0.418 0,0.552 0.998,1.535 1.557,1.535 0.243,0 0.333,0.176 0.2,0.39 -0.221,0.358 0.313,0.565 1.104,0.428 0.177,-0.031 0.21,0.124 0.074,0.344 -0.246,0.398 3.026,3.916 3.641,3.916 0.178,0 0.555,0.433 0.838,0.963 0.284,0.53 0.665,0.871 0.847,0.758 0.183,-0.112 0.332,-0.045 0.332,0.149 0,0.538 1.399,2.036 1.902,2.036 0.243,0 0.442,0.264 0.442,0.586 0,0.322 0.264,0.586 0.586,0.586 0.322,0 0.586,0.188 0.586,0.419 0,0.54 0.994,1.534 1.534,1.534 0.231,0 0.419,0.188 0.419,0.419 0,0.54 0.994,1.534 1.535,1.534 0.23,0 0.418,0.264 0.418,0.586 0,0.322 0.264,0.586 0.586,0.586 0.322,0 0.586,0.174 0.586,0.386 0,0.627 1.298,1.958 1.91,1.958 0.31,0 0.469,0.094 0.354,0.21 -0.276,0.276 13.954,14.634 14.503,14.634 0.231,0 0.379,0.131 0.328,0.293 -0.132,0.422 2.314,2.824 2.593,2.545 0.129,-0.129 0.234,-0.029 0.234,0.222 0,0.557 1.414,2.018 1.953,2.018 0.215,0 0.347,0.16 0.293,0.355 -0.107,0.389 2.387,2.77 2.902,2.77 0.177,0 0.321,0.263 0.321,0.586 0,0.322 0.293,0.586 0.651,0.586 0.358,0 0.552,0.098 0.432,0.218 -0.259,0.259 5.076,5.641 5.592,5.641 0.196,0 0.356,0.188 0.356,0.419 0,0.23 0.264,0.682 0.586,1.004 0.322,0.322 0.586,0.451 0.586,0.287 0,-0.165 0.397,0.218 0.883,0.851 1.327,1.727 4.141,4.47 4.585,4.47 0.215,0 0.391,0.155 0.391,0.344 0,0.49 9.481,10.028 9.85,9.91 0.169,-0.054 0.306,0.076 0.306,0.289 0,0.626 1.299,1.957 1.91,1.957 0.31,0 0.455,0.11 0.321,0.243 -0.295,0.295 2.081,2.727 2.529,2.589 0.175,-0.053 0.319,0.091 0.319,0.322 0,0.555 7.334,7.784 7.896,7.784 0.24,0 0.336,0.101 0.213,0.224 -0.257,0.257 4.203,4.854 4.708,4.854 0.182,0 0.564,0.433 0.847,0.963 0.284,0.53 0.665,0.871 0.847,0.758 0.183,-0.112 0.332,-0.045 0.332,0.149 0,0.538 1.399,2.036 1.902,2.036 0.243,0 0.442,0.264 0.442,0.586 0,0.322 0.264,0.586 0.586,0.586 0.322,0 0.586,0.188 0.586,0.419 0,0.54 0.994,1.534 1.534,1.534 0.231,0 0.419,0.188 0.419,0.419 0,0.54 0.994,1.534 1.535,1.534 0.23,0 0.418,0.274 0.418,0.609 0,0.335 0.188,0.493 0.417,0.352 0.229,-0.142 0.503,0.073 0.609,0.477 0.106,0.405 0.697,1.075 1.313,1.489 0.617,0.414 1.052,0.866 0.967,1.003 -0.085,0.137 0.279,0.481 0.809,0.765 0.53,0.283 0.963,0.66 0.963,0.838 0,0.616 3.518,3.887 3.916,3.641 0.22,-0.136 0.375,-0.103 0.345,0.075 -0.138,0.79 0.069,1.324 0.427,1.103 0.215,-0.133 0.39,-0.077 0.39,0.125 0,1.04 6.604,7.101 7.738,7.101 1.363,0 3.591,-1.764 3.591,-2.844 0,-0.395 0.171,-0.611 0.381,-0.481 0.21,0.129 0.869,-0.469 1.465,-1.33 0.596,-0.861 1.303,-1.572 1.571,-1.58 0.269,-0.008 0.489,-0.278 0.489,-0.601 0,-0.322 0.176,-0.585 0.39,-0.585 0.215,0 0.392,-0.22 0.393,-0.489 10e-4,-0.268 0.544,-1.067 1.207,-1.774 0.733,-0.782 1.114,-1.524 0.973,-1.892 -0.151,-0.395 0.038,-0.676 0.546,-0.809 0.429,-0.112 0.694,-0.341 0.59,-0.509 -0.104,-0.168 0.074,-0.406 0.395,-0.529 0.321,-0.123 0.584,-0.506 0.584,-0.85 0,-0.344 0.279,-0.905 0.62,-1.246 0.341,-0.341 0.544,-1.015 0.451,-1.499 -0.116,-0.606 -0.01,-0.818 0.341,-0.684 0.307,0.118 0.609,-0.205 0.762,-0.817 0.14,-0.556 0.411,-1.012 0.603,-1.012 0.191,0 0.348,-0.421 0.348,-0.935 0,-0.514 0.264,-1.036 0.586,-1.159 0.322,-0.124 0.586,-0.582 0.586,-1.019 0,-0.436 0.176,-0.793 0.39,-0.793 0.215,0 0.391,-0.418 0.391,-0.929 0,-0.511 0.227,-1.117 0.505,-1.348 0.277,-0.23 0.55,-1.086 0.604,-1.902 0.055,-0.816 0.268,-1.651 0.472,-1.856 0.205,-0.204 0.372,-0.757 0.372,-1.228 0,-0.471 0.281,-0.965 0.625,-1.097 0.476,-0.182 0.592,-0.657 0.486,-1.994 -0.094,-1.175 0.014,-1.755 0.325,-1.755 0.525,-10e-4 0.783,-0.787 0.864,-2.626 0.03,-0.692 0.228,-1.714 0.44,-2.271 0.212,-0.558 0.385,-2.421 0.385,-4.141 0,-2.166 0.169,-3.297 0.549,-3.677 0.837,-0.836 0.895,-12.095 0.065,-12.559 -0.451,-0.252 -0.602,-1.171 -0.646,-3.93 -0.032,-1.98 -0.213,-3.503 -0.403,-3.386 -0.191,0.118 -0.346,-0.906 -0.346,-2.274 0,-1.582 -0.209,-2.763 -0.574,-3.245 -0.315,-0.417 -0.579,-1.267 -0.586,-1.887 -0.006,-0.621 -0.313,-1.349 -0.681,-1.618 -0.46,-0.337 -0.638,-0.937 -0.571,-1.931 0.062,-0.916 -0.051,-1.35 -0.308,-1.191 -0.441,0.273 -0.477,0.175 -0.567,-1.526 -0.034,-0.629 -0.274,-1.215 -0.535,-1.302 -0.261,-0.087 -0.475,-0.548 -0.475,-1.024 0,-0.476 -0.199,-1.065 -0.443,-1.308 -0.243,-0.244 -0.484,-0.85 -0.536,-1.348 -0.151,-1.463 -0.166,-1.491 -0.802,-1.491 -0.335,0 -0.515,-0.151 -0.401,-0.336 0.242,-0.392 -0.616,-2.391 -1.028,-2.395 -0.155,-0.002 -0.18,-0.267 -0.056,-0.589 0.123,-0.322 0.042,-0.586 -0.182,-0.586 -0.223,0 -0.518,-0.354 -0.655,-0.787 -0.138,-0.433 -0.413,-0.686 -0.613,-0.563 -0.199,0.123 -0.362,-0.226 -0.362,-0.776 0,-0.549 -0.157,-0.999 -0.348,-0.999 -0.192,0 -0.459,-0.44 -0.594,-0.977 -0.135,-0.537 -0.417,-0.976 -0.628,-0.976 -0.211,0 -0.383,-0.237 -0.383,-0.526 0,-0.289 -0.382,-0.86 -0.849,-1.269 -0.466,-0.409 -0.72,-0.525 -0.563,-0.256 0.158,0.269 0.19,0.488 0.073,0.488 -0.117,0 -0.47,-0.615 -0.785,-1.367 -0.314,-0.752 -0.75,-1.367 -0.969,-1.367 -0.219,0 -0.297,-0.264 -0.174,-0.586 0.143,-0.371 -0.005,-0.586 -0.402,-0.586 -0.346,0 -0.628,-0.168 -0.628,-0.373 0,-0.205 -0.396,-0.804 -0.879,-1.33 -0.483,-0.527 -1.318,-1.523 -1.855,-2.214 -1.534,-1.973 -1.986,-2.359 -2.436,-2.081 -0.242,0.15 -0.307,0.077 -0.152,-0.173 0.331,-0.536 -0.897,-2.032 -1.666,-2.032 -0.31,0 -0.455,-0.109 -0.321,-0.243 0.297,-0.297 -1.84,-2.491 -2.427,-2.491 -0.231,0 -0.42,-0.19 -0.42,-0.421 0,-0.587 -2.195,-2.724 -2.492,-2.427 -0.133,0.134 -0.243,0.022 -0.243,-0.248 0,-0.604 -6.431,-7.061 -7.034,-7.061 -0.238,0 -0.344,-0.144 -0.235,-0.321 0.222,-0.359 -1.119,-1.632 -1.72,-1.632 -0.212,0 -0.386,-0.184 -0.386,-0.409 0,-0.749 -3.469,-3.963 -3.954,-3.663 -0.28,0.173 -0.36,0.12 -0.202,-0.136 0.349,-0.565 -3.165,-4.103 -3.729,-3.755 -0.274,0.169 -0.329,0.094 -0.148,-0.198 0.358,-0.579 -1.527,-2.559 -2.1,-2.205 -0.251,0.155 -0.306,-0.006 -0.146,-0.424 0.197,-0.512 0.105,-0.615 -0.383,-0.428 -0.618,0.238 -1.159,-0.232 -1.295,-1.125 -0.112,-0.73 -3.631,-4.132 -4.024,-3.889 -0.204,0.126 -0.498,0.023 -0.654,-0.228 -0.176,-0.286 -0.113,-0.353 0.169,-0.179 0.756,0.468 0.502,-0.331 -0.334,-1.046 -0.431,-0.37 -1.003,-0.629 -1.269,-0.576 -0.267,0.054 -0.438,-0.134 -0.379,-0.417 0.147,-0.712 -5.313,-6.019 -5.85,-5.687 -0.265,0.164 -0.321,0.088 -0.145,-0.196 0.369,-0.598 -6.289,-7.204 -6.887,-6.834 -0.267,0.164 -0.32,0.086 -0.139,-0.206 0.345,-0.558 -2.072,-3.021 -2.8,-2.854 -0.31,0.072 -0.392,-0.129 -0.227,-0.558 0.196,-0.512 0.103,-0.61 -0.397,-0.419 -0.427,0.164 -0.654,0.054 -0.654,-0.318 0,-0.641 -1.171,-2.14 -1.672,-2.14 -0.18,0 -0.201,0.202 -0.048,0.45 0.174,0.282 0.107,0.345 -0.179,0.169 -0.251,-0.156 -0.351,-0.455 -0.221,-0.665 0.296,-0.479 -2.501,-3.166 -2.985,-2.867 -0.195,0.12 -0.238,-0.085 -0.096,-0.455 0.196,-0.511 0.105,-0.615 -0.375,-0.431 -0.469,0.18 -0.57,0.078 -0.391,-0.391 0.185,-0.48 0.08,-0.571 -0.43,-0.375 -0.391,0.15 -0.577,0.101 -0.443,-0.117 0.322,-0.52 -4.832,-5.549 -5.356,-5.226 -0.247,0.153 -0.313,0.082 -0.158,-0.169 0.245,-0.395 -4.808,-5.939 -5.412,-5.939 -0.398,0 -1.193,-0.898 -1.491,-1.685 -0.148,-0.39 -0.445,-0.599 -0.662,-0.465 -0.216,0.133 -0.393,-0.031 -0.393,-0.366 0,-0.335 -0.264,-0.609 -0.586,-0.609 -0.322,0 -0.542,-0.142 -0.488,-0.316 0.169,-0.546 -4.411,-4.798 -4.866,-4.517 -0.264,0.163 -0.32,0.087 -0.144,-0.198 0.349,-0.565 -3.121,-4.105 -3.685,-3.756 -0.213,0.131 -0.387,-0.043 -0.387,-0.388 0,-0.906 -3.388,-4.232 -3.954,-3.882 -0.294,0.182 -0.361,0.12 -0.183,-0.168 0.302,-0.488 -4.862,-5.916 -5.628,-5.916 -0.241,0 -0.348,-0.144 -0.239,-0.321 0.222,-0.359 -1.119,-1.632 -1.72,-1.632 -0.212,0 -0.386,-0.183 -0.386,-0.407 0,-0.742 -1.484,-2.031 -1.983,-1.723 -0.307,0.19 -0.381,0.136 -0.206,-0.148 0.379,-0.614 -1.139,-2.181 -1.747,-1.805 -0.297,0.184 -0.382,0.136 -0.22,-0.125 0.349,-0.565 -3.165,-4.103 -3.729,-3.755 -0.274,0.169 -0.329,0.094 -0.148,-0.198 0.358,-0.579 -1.527,-2.559 -2.1,-2.205 -0.246,0.152 -0.309,0.002 -0.161,-0.385 0.18,-0.468 0.05,-0.602 -0.493,-0.509 -0.405,0.07 -0.702,-0.064 -0.66,-0.297 0.124,-0.686 -2.174,-2.973 -2.675,-2.664 -0.29,0.179 -0.345,0.107 -0.154,-0.202 0.376,-0.608 -1.191,-2.126 -1.805,-1.747 -0.284,0.175 -0.338,0.101 -0.148,-0.206 0.308,-0.499 -0.981,-1.983 -1.723,-1.983 -0.224,0 -0.407,-0.184 -0.407,-0.409 0,-0.749 -3.469,-3.963 -3.954,-3.663 -0.286,0.176 -0.361,0.119 -0.195,-0.149 0.339,-0.548 -7.017,-8.035 -7.564,-7.697 -0.222,0.137 -0.396,-0.127 -0.396,-0.601 0,-0.604 -0.174,-0.78 -0.607,-0.613 -0.371,0.142 -0.506,0.071 -0.349,-0.184 0.142,-0.229 -0.113,-0.761 -0.565,-1.183 -0.453,-0.421 -0.834,-0.627 -0.848,-0.458 -0.014,0.17 -0.183,-0.084 -0.376,-0.564 -0.228,-0.568 -0.562,-0.792 -0.956,-0.64 -0.438,0.168 -0.538,0.058 -0.364,-0.397 0.133,-0.347 0.047,-0.63 -0.191,-0.63 -0.237,0 -0.435,0.22 -0.438,0.489 -0.004,0.335 -0.119,0.31 -0.365,-0.079 -0.197,-0.312 -0.295,-0.672 -0.216,-0.798 0.078,-0.127 -0.196,-0.256 -0.608,-0.287 -0.737,-0.056 -0.751,0.793 -0.751,44.84 m 55.722,-20.857 c -0.486,0.486 -0.269,2.083 0.284,2.083 0.299,0 0.649,0.275 0.778,0.611 0.129,0.335 0.41,0.502 0.624,0.37 0.213,-0.132 0.296,-10e-4 0.184,0.292 -0.118,0.308 0.215,0.758 0.786,1.063 0.544,0.292 0.99,0.764 0.99,1.05 0,0.286 0.222,0.52 0.492,0.52 0.271,0 0.931,0.541 1.465,1.203 1.316,1.627 3.67,3.994 5.08,5.109 0.638,0.503 1.161,1.134 1.162,1.403 0.002,0.269 0.268,0.488 0.59,0.488 0.322,0 0.586,0.274 0.586,0.609 0,0.335 0.176,0.501 0.391,0.368 0.214,-0.133 0.39,0.032 0.39,0.367 0,0.335 0.264,0.609 0.586,0.609 0.322,0 0.586,0.189 0.586,0.419 0,0.439 0.956,1.535 1.339,1.535 0.39,0 1.786,1.545 1.786,1.976 0,0.227 0.176,0.305 0.391,0.172 0.214,-0.133 0.39,0.033 0.39,0.368 0,0.334 0.264,0.609 0.586,0.609 0.322,0 0.586,0.188 0.586,0.418 0,0.541 0.994,1.535 1.535,1.535 0.23,0 0.418,0.263 0.418,0.586 0,0.322 0.234,0.586 0.52,0.586 0.286,0 0.755,0.439 1.043,0.976 0.287,0.537 0.855,0.977 1.261,0.977 0.406,0 0.629,0.177 0.495,0.393 -0.272,0.44 0.691,1.56 1.341,1.56 0.23,0 0.418,0.234 0.418,0.52 0,0.286 0.44,0.755 0.977,1.042 0.537,0.288 0.977,0.757 0.977,1.043 0,0.286 0.263,0.52 0.585,0.52 0.323,0 0.586,0.282 0.586,0.627 0,0.388 0.217,0.545 0.566,0.411 0.379,-0.145 0.494,-0.029 0.349,0.349 -0.134,0.349 0.023,0.566 0.411,0.566 0.345,0 0.628,0.264 0.628,0.586 0,0.322 0.274,0.586 0.608,0.586 0.335,0 0.501,0.176 0.368,0.39 -0.133,0.215 -0.045,0.391 0.194,0.391 0.476,0 2.736,2.331 2.736,2.821 0,0.167 0.346,0.304 0.769,0.304 0.523,0 0.697,0.187 0.544,0.586 -0.145,0.376 0.008,0.586 0.426,0.586 0.358,0 0.542,0.176 0.409,0.391 -0.133,0.214 0.033,0.39 0.368,0.39 0.335,0 0.609,0.264 0.609,0.586 0,0.322 0.136,0.586 0.303,0.586 0.422,0 2.822,2.227 2.822,2.618 0,0.381 1.638,1.487 2.036,1.376 0.154,-0.043 0.179,0.183 0.056,0.503 -0.122,0.32 -0.052,0.581 0.156,0.581 0.209,0 0.843,0.464 1.409,1.03 0.567,0.566 1.041,0.874 1.055,0.684 0.014,-0.191 0.188,0.06 0.387,0.557 0.2,0.498 0.54,0.795 0.757,0.661 0.216,-0.134 0.394,-0.009 0.394,0.278 0,0.666 2.18,3.074 2.496,2.757 0.131,-0.131 0.238,0.055 0.238,0.413 0,0.358 0.245,0.651 0.544,0.651 0.3,0 0.65,0.275 0.779,0.611 0.129,0.336 0.374,0.524 0.545,0.419 0.17,-0.106 0.538,0.323 0.816,0.952 0.279,0.629 0.756,1.143 1.06,1.143 0.304,0 0.553,0.264 0.553,0.586 0,0.323 0.274,0.586 0.609,0.586 0.335,0 0.5,0.176 0.368,0.391 -0.133,0.215 0.032,0.39 0.367,0.391 0.335,0 0.609,0.263 0.609,0.585 0,0.323 0.137,0.586 0.304,0.586 0.375,0 2.821,2.207 2.821,2.545 0,0.401 1.083,1.362 1.535,1.362 0.23,0 0.418,0.188 0.418,0.418 0,0.541 0.994,1.535 1.535,1.535 0.23,0 0.418,0.263 0.418,0.586 0,0.322 0.264,0.586 0.586,0.586 0.323,0 0.586,0.188 0.586,0.418 0,0.541 0.994,1.535 1.535,1.535 0.23,0 0.418,0.188 0.418,0.418 0,0.541 0.994,1.535 1.535,1.535 0.23,0 0.419,0.234 0.419,0.52 0,0.286 0.439,0.755 0.976,1.042 0.537,0.288 0.977,0.757 0.977,1.043 0,0.286 0.263,0.52 0.586,0.52 0.322,0 0.586,0.188 0.586,0.418 0,0.541 0.993,1.535 1.534,1.535 0.23,0 0.419,0.264 0.419,0.586 0,0.322 0.181,0.586 0.403,0.586 0.506,0 2.722,2.237 2.722,2.748 0,0.207 0.244,0.377 0.544,0.377 0.299,0 0.649,0.275 0.778,0.611 0.129,0.335 0.41,0.502 0.624,0.37 0.213,-0.132 0.296,-0.001 0.184,0.292 -0.118,0.308 0.215,0.758 0.786,1.063 0.544,0.292 0.99,0.783 0.99,1.092 0,0.339 0.232,0.472 0.586,0.337 0.322,-0.124 0.586,-0.055 0.586,0.153 0,0.208 0.307,0.712 0.683,1.12 2.713,2.943 4.061,4.293 5.121,5.131 0.671,0.53 1.222,1.183 1.223,1.452 0.002,0.269 0.238,0.488 0.524,0.488 0.286,0 0.758,0.446 1.05,0.99 0.305,0.571 0.755,0.904 1.063,0.786 0.293,-0.112 0.439,-0.053 0.325,0.131 -0.247,0.4 1.062,2 1.636,2 0.22,0 0.502,0.263 0.625,0.585 0.124,0.323 0.494,0.586 0.823,0.586 0.329,0 0.555,0.22 0.501,0.489 -0.054,0.268 0.254,0.488 0.684,0.488 0.772,0 0.782,-0.294 0.881,-26.27 0.067,-17.441 -0.032,-26.269 -0.293,-26.269 -0.216,0 -0.393,-0.885 -0.393,-1.966 0,-1.386 -0.173,-2.031 -0.586,-2.19 -0.379,-0.145 -0.586,-0.751 -0.586,-1.717 0,-0.821 -0.264,-1.757 -0.586,-2.079 -0.322,-0.322 -0.586,-1.023 -0.586,-1.558 0,-0.535 -0.174,-1.03 -0.387,-1.102 -0.213,-0.072 -0.428,-0.625 -0.478,-1.229 -0.05,-0.604 -0.315,-1.285 -0.589,-1.513 -0.275,-0.227 -0.499,-0.709 -0.499,-1.069 0,-0.36 -0.22,-0.875 -0.488,-1.144 -0.269,-0.268 -0.511,-0.655 -0.537,-0.859 -0.027,-0.204 -0.071,-0.557 -0.098,-0.785 -0.027,-0.227 -0.225,-0.305 -0.439,-0.172 -0.215,0.133 -0.391,-0.108 -0.391,-0.535 0,-0.427 -0.264,-1.04 -0.586,-1.362 -0.322,-0.323 -0.586,-0.76 -0.586,-0.972 0,-0.212 -0.139,-0.445 -0.31,-0.516 -0.17,-0.072 -0.712,-0.79 -1.203,-1.595 -0.492,-0.806 -1.066,-1.465 -1.276,-1.465 -0.21,0 -0.273,-0.176 -0.141,-0.391 0.133,-0.215 -0.032,-0.39 -0.367,-0.39 -0.335,0 -0.609,-0.237 -0.609,-0.526 0,-0.709 -1.66,-2.599 -2.282,-2.599 -0.274,-0.001 -0.408,-0.148 -0.296,-0.328 0.293,-0.475 -2.805,-3.678 -3.276,-3.387 -0.219,0.135 -0.396,-0.115 -0.396,-0.559 0,-0.455 -0.255,-0.805 -0.586,-0.805 -0.322,0 -0.586,-0.175 -0.586,-0.39 0,-0.215 -0.262,-0.391 -0.583,-0.391 -0.321,0 -1.058,-0.533 -1.638,-1.184 -0.581,-0.652 -1.295,-1.093 -1.586,-0.981 -0.292,0.111 -0.429,0.038 -0.304,-0.164 0.281,-0.454 -1.234,-1.309 -1.752,-0.989 -0.213,0.131 -0.276,-0.032 -0.146,-0.373 0.151,-0.392 0.012,-0.606 -0.395,-0.606 -0.345,0 -0.627,-0.156 -0.627,-0.348 0,-0.192 -0.44,-0.459 -0.977,-0.593 -0.537,-0.135 -0.976,-0.418 -0.976,-0.629 0,-0.21 -0.227,-0.383 -0.504,-0.383 -0.277,0 -1.182,-0.346 -2.011,-0.768 -0.829,-0.423 -1.701,-0.659 -1.938,-0.524 -0.237,0.135 -0.293,0.095 -0.126,-0.089 0.374,-0.41 -2.266,-1.744 -3.451,-1.744 -0.473,0 -1.078,-0.264 -1.345,-0.586 -0.297,-0.357 -1.153,-0.586 -2.197,-0.586 -0.94,0 -1.71,-0.176 -1.71,-0.39 0,-0.215 -0.879,-0.391 -1.953,-0.391 -1.299,0 -1.955,-0.164 -1.959,-0.488 -0.004,-0.326 -0.132,-0.293 -0.385,0.097 -0.323,0.501 -0.379,0.487 -0.384,-0.097 -0.006,-0.703 -51.002,-1.121 -51.699,-0.423 m -55.527,116.854 c -0.377,0.378 -0.184,54.701 0.195,54.833 0.194,0.067 0.383,1.529 0.42,3.247 0.037,1.719 0.245,3.239 0.462,3.378 0.217,0.139 0.395,1.077 0.395,2.085 0,1.182 0.188,1.903 0.53,2.035 0.321,0.123 0.53,0.804 0.53,1.724 0,0.836 0.176,1.521 0.391,1.521 0.215,0 0.391,0.527 0.391,1.172 0,0.644 0.338,1.51 0.752,1.924 0.445,0.445 0.67,1.065 0.552,1.518 -0.111,0.421 -0.01,0.884 0.224,1.029 0.234,0.144 0.425,0.609 0.425,1.033 0,0.423 0.263,0.871 0.586,0.995 0.322,0.124 0.586,0.651 0.586,1.172 0,0.521 0.263,1.048 0.585,1.172 0.323,0.123 0.586,0.645 0.586,1.159 0,0.514 0.176,0.935 0.391,0.935 0.215,0 0.391,0.345 0.391,0.768 0,0.422 0.366,0.963 0.814,1.203 0.448,0.24 0.719,0.532 0.602,0.649 -0.3,0.3 0.866,2.458 1.328,2.458 0.209,0 0.381,0.313 0.381,0.695 0,0.681 1.514,2.295 2.01,2.144 0.139,-0.043 0.173,0.229 0.075,0.603 -0.098,0.375 0.271,1.202 0.821,1.842 0.549,0.639 0.999,1.293 0.999,1.454 0.001,0.162 0.265,0.293 0.587,0.293 0.322,0 0.586,0.252 0.586,0.558 0,0.764 2.541,3.404 2.934,3.049 0.174,-0.158 0.204,-0.09 0.067,0.151 -0.249,0.436 2.209,3.274 2.835,3.274 0.182,0 0.431,0.263 0.555,0.586 0.124,0.322 0.504,0.586 0.846,0.586 0.342,0 0.505,0.187 0.364,0.416 -0.143,0.232 0.122,0.517 0.596,0.641 0.643,0.168 0.725,0.304 0.332,0.553 -0.405,0.257 -0.376,0.332 0.13,0.337 0.358,0.003 0.712,0.189 0.787,0.414 0.074,0.224 0.516,0.436 0.982,0.471 0.465,0.035 0.814,0.169 0.775,0.296 -0.15,0.495 3.85,3.906 4.353,3.713 0.304,-0.117 0.613,0.109 0.723,0.527 0.111,0.424 0.834,0.943 1.721,1.236 0.842,0.278 1.531,0.74 1.531,1.028 0,0.298 0.421,0.524 0.977,0.524 0.537,0 0.976,0.176 0.976,0.39 0,0.215 0.44,0.391 0.977,0.391 0.607,0 0.976,0.221 0.976,0.586 0,0.358 0.365,0.586 0.935,0.586 0.514,0 1.036,0.264 1.16,0.586 0.123,0.322 0.582,0.586 1.018,0.586 0.436,0 0.794,0.194 0.794,0.432 0,0.238 0.262,0.332 0.583,0.209 0.322,-0.124 0.923,0.141 1.345,0.594 0.419,0.45 1.015,0.721 1.325,0.602 0.31,-0.119 0.964,0.065 1.454,0.408 0.49,0.343 0.771,0.43 0.624,0.193 -0.147,-0.238 0.264,-0.167 0.912,0.156 0.648,0.323 1.178,0.744 1.178,0.936 0,0.191 0.816,0.331 1.812,0.311 1.267,-0.025 1.915,0.148 2.154,0.576 0.222,0.397 0.87,0.604 1.844,0.591 0.826,-0.011 1.935,0.263 2.464,0.61 0.708,0.464 1.571,0.584 3.27,0.455 1.298,-0.099 2.079,-0.034 1.786,0.147 -0.292,0.18 -0.36,0.423 -0.155,0.55 0.667,0.412 23.319,0.21 23.835,-0.214 0.267,-0.219 1.49,-0.443 2.717,-0.497 1.228,-0.055 2.298,-0.298 2.379,-0.54 0.083,-0.248 0.992,-0.441 2.08,-0.441 1.358,0 2,-0.174 2.157,-0.586 0.147,-0.382 0.755,-0.586 1.746,-0.586 1.091,0 1.521,-0.165 1.521,-0.586 0,-0.407 0.41,-0.586 1.344,-0.586 0.739,0 1.44,-0.156 1.558,-0.346 0.118,-0.191 0.831,-0.462 1.586,-0.604 0.754,-0.141 1.371,-0.425 1.371,-0.63 0,-0.205 0.44,-0.373 0.977,-0.373 0.613,0 0.976,-0.221 0.976,-0.593 0,-0.432 0.256,-0.529 0.939,-0.358 0.615,0.154 1.053,0.037 1.27,-0.34 0.181,-0.316 0.682,-0.64 1.112,-0.719 1.147,-0.212 1.275,-2.379 0.204,-3.45 -0.451,-0.45 -1.018,-0.695 -1.262,-0.545 -0.291,0.18 -0.357,0.051 -0.193,-0.376 0.163,-0.425 0.05,-0.65 -0.324,-0.65 -0.316,0 -0.574,-0.234 -0.574,-0.52 0,-0.286 -0.439,-0.755 -0.976,-1.043 -0.538,-0.287 -0.977,-0.679 -0.977,-0.87 0,-0.191 -0.203,-0.222 -0.451,-0.069 -0.254,0.157 -0.346,0.109 -0.21,-0.111 0.3,-0.486 -3.37,-4.282 -4.482,-4.634 -0.645,-0.205 -0.705,-0.333 -0.28,-0.602 0.436,-0.277 0.417,-0.344 -0.102,-0.348 -0.353,-0.004 -0.747,-0.281 -0.876,-0.617 -0.129,-0.336 -0.399,-0.509 -0.6,-0.384 -0.202,0.124 -0.494,0.02 -0.65,-0.231 -0.176,-0.286 -0.113,-0.353 0.169,-0.179 0.801,0.495 0.48,-0.101 -0.708,-1.316 -0.637,-0.652 -1.34,-1.186 -1.562,-1.186 -0.223,0 -0.404,-0.263 -0.404,-0.586 0,-0.322 -0.189,-0.585 -0.419,-0.585 -0.23,0 -0.669,-0.252 -0.976,-0.559 -0.307,-0.306 -0.558,-0.746 -0.558,-0.976 0,-0.23 -0.187,-0.419 -0.414,-0.419 -0.228,0 -0.313,0.164 -0.189,0.364 0.124,0.2 0.019,0.491 -0.233,0.646 -0.275,0.17 -0.353,0.114 -0.195,-0.141 0.144,-0.233 0.091,-0.53 -0.118,-0.659 -0.209,-0.129 -0.281,-0.493 -0.16,-0.808 0.143,-0.371 -0.024,-0.573 -0.472,-0.573 -0.382,0 -0.586,-0.108 -0.455,-0.238 0.253,-0.254 -2.027,-2.497 -2.539,-2.497 -0.167,0 -0.306,-0.307 -0.309,-0.683 -0.005,-0.543 -0.077,-0.572 -0.348,-0.144 -0.27,0.425 -0.398,0.366 -0.602,-0.28 -0.353,-1.112 -4.149,-4.782 -4.635,-4.481 -0.214,0.132 -0.284,0.069 -0.155,-0.14 0.129,-0.209 -0.107,-0.626 -0.525,-0.928 -0.419,-0.301 -0.761,-0.772 -0.761,-1.047 0,-0.275 -0.263,-0.5 -0.586,-0.5 -0.322,0 -0.586,-0.258 -0.586,-0.574 0,-0.374 -0.225,-0.487 -0.65,-0.324 -0.427,0.164 -0.556,0.098 -0.376,-0.193 0.277,-0.448 -1.023,-2.034 -1.666,-2.034 -0.192,0 -0.45,-0.264 -0.574,-0.586 -0.124,-0.322 -0.523,-0.586 -0.888,-0.586 -0.365,0 -0.549,-0.114 -0.409,-0.254 0.139,-0.14 -0.187,-0.663 -0.726,-1.162 -0.538,-0.499 -1.014,-1.044 -1.056,-1.211 -0.141,-0.551 -2.192,-2.377 -2.417,-2.152 -0.122,0.122 -0.222,0.012 -0.222,-0.244 0,-0.256 -0.439,-0.632 -0.977,-0.836 -0.537,-0.204 -0.976,-0.611 -0.976,-0.903 0,-0.589 -3.388,-4.175 -3.945,-4.175 -0.194,0 -0.352,-0.264 -0.352,-0.586 0,-0.323 -0.199,-0.586 -0.443,-0.586 -0.243,0 -0.879,-0.484 -1.413,-1.074 -0.534,-0.591 -0.833,-0.811 -0.666,-0.489 0.179,0.346 0.158,0.453 -0.052,0.261 -0.196,-0.179 -0.378,-0.487 -0.405,-0.684 -0.026,-0.197 -0.07,-0.544 -0.097,-0.772 -0.027,-0.227 -0.225,-0.305 -0.44,-0.172 -0.214,0.133 -0.39,-0.033 -0.39,-0.368 0,-0.345 -0.333,-0.608 -0.769,-0.608 -0.523,0 -0.697,-0.188 -0.544,-0.586 0.142,-0.371 -0.006,-0.586 -0.403,-0.586 -0.346,0 -0.628,-0.187 -0.628,-0.414 0,-0.228 -0.132,-0.334 -0.293,-0.236 -0.161,0.097 -0.508,-0.055 -0.77,-0.339 -0.375,-0.407 -0.375,-0.558 0,-0.71 0.288,-0.116 0.222,-0.205 -0.165,-0.224 -0.353,-0.017 -0.747,-0.305 -0.876,-0.641 -0.129,-0.336 -0.399,-0.509 -0.601,-0.384 -0.201,0.124 -0.493,0.02 -0.649,-0.231 -0.176,-0.286 -0.113,-0.353 0.169,-0.179 0.71,0.439 0.527,-0.082 -0.331,-0.939 -0.857,-0.858 -1.378,-1.041 -0.939,-0.331 0.174,0.282 0.107,0.345 -0.179,0.169 -0.251,-0.156 -0.355,-0.448 -0.23,-0.649 0.124,-0.202 -0.049,-0.472 -0.385,-0.601 -0.336,-0.129 -0.613,-0.523 -0.616,-0.876 -0.005,-0.518 -0.072,-0.538 -0.348,-0.102 -0.269,0.424 -0.399,0.361 -0.607,-0.293 -0.145,-0.458 -0.428,-0.833 -0.628,-0.833 -0.201,0 -0.364,-0.282 -0.364,-0.628 0,-0.397 -0.215,-0.545 -0.586,-0.402 -0.399,0.152 -0.586,-0.022 -0.586,-0.545 0,-0.457 -0.264,-0.769 -0.651,-0.769 -0.358,0 -0.54,-0.111 -0.404,-0.247 0.293,-0.293 -1.41,-1.706 -2.057,-1.706 -0.248,0 -0.341,-0.176 -0.209,-0.39 0.133,-0.215 0.056,-0.391 -0.172,-0.391 -0.227,0 -0.414,-0.264 -0.414,-0.586 0,-0.322 -0.263,-0.586 -0.586,-0.586 -0.322,0 -0.585,-0.158 -0.585,-0.352 0,-0.557 -3.587,-3.945 -4.176,-3.945 -0.292,0 -0.698,-0.439 -0.903,-0.976 -0.204,-0.537 -0.58,-0.977 -0.836,-0.977 -0.256,0 -0.366,-0.1 -0.244,-0.221 0.217,-0.218 -1.571,-2.252 -2.137,-2.432 -0.366,-0.116 -3.814,-3.554 -3.814,-3.802 0,-0.52 -1.651,-1.739 -2.034,-1.503 -0.291,0.18 -0.357,0.051 -0.193,-0.376 0.163,-0.425 0.05,-0.65 -0.324,-0.65 -0.316,0 -0.574,-0.293 -0.574,-0.651 0,-0.358 -0.106,-0.545 -0.236,-0.415 -0.13,0.13 -0.631,-0.189 -1.113,-0.71 -0.483,-0.52 -1.02,-0.817 -1.194,-0.659 -0.174,0.157 -0.207,0.094 -0.074,-0.14 0.296,-0.52 -3.337,-4.31 -4.479,-4.672 -0.645,-0.205 -0.705,-0.333 -0.28,-0.602 0.428,-0.272 0.399,-0.344 -0.143,-0.348 -0.376,-0.004 -0.684,-0.143 -0.684,-0.31 0,-0.511 -2.243,-2.792 -2.496,-2.538 -0.131,0.13 -0.238,-0.056 -0.238,-0.414 0,-0.358 -0.176,-0.651 -0.391,-0.651 -0.215,0 -0.393,0.22 -0.397,0.489 -0.004,0.345 -0.107,0.327 -0.354,-0.063 -0.192,-0.302 -0.258,-0.786 -0.148,-1.074 0.111,-0.288 -0.006,-0.523 -0.259,-0.523 -0.575,0 -1.576,-0.975 -1.576,-1.535 0,-0.23 -0.264,-0.419 -0.586,-0.419 -0.323,0 -0.586,-0.181 -0.586,-0.403 0,-0.223 -0.534,-0.926 -1.186,-1.563 -1.215,-1.188 -1.811,-1.509 -1.316,-0.708 0.174,0.282 0.107,0.345 -0.179,0.169 -0.251,-0.156 -0.355,-0.448 -0.231,-0.649 0.125,-0.202 -0.048,-0.472 -0.384,-0.601 -0.336,-0.129 -0.613,-0.523 -0.616,-0.876 -0.005,-0.518 -0.072,-0.538 -0.348,-0.102 -0.27,0.425 -0.398,0.366 -0.602,-0.28 -0.353,-1.112 -4.149,-4.782 -4.635,-4.481 -0.214,0.132 -0.284,0.069 -0.155,-0.14 0.129,-0.209 -0.107,-0.626 -0.525,-0.928 -0.419,-0.301 -0.761,-0.772 -0.761,-1.047 0,-0.275 -0.263,-0.5 -0.586,-0.5 -0.322,0 -0.586,-0.258 -0.586,-0.574 0,-0.374 -0.225,-0.487 -0.65,-0.324 -0.427,0.164 -0.556,0.098 -0.376,-0.193 0.635,-1.028 -2.561,-2.613 -3.459,-1.716"
       stroke="none"
       fill="#0c3c6c"
       fill-rule="evenodd" />
    <path
       id="path1"
       d="m 5.859,327.148 v 3.321 h 8.789 8.79 v 23.828 23.828 h 3.71 3.711 v -23.828 -23.828 h 8.985 8.984 v -3.321 -3.32 H 27.344 5.859 v 3.32 m 49.61,23.818 v 27.159 h 3.707 3.708 l 0.101,-21.924 0.101,-21.924 3.82,11.279 c 2.102,6.204 5.441,16.07 7.421,21.924 l 3.6,10.645 h 3.34 3.339 l 0.819,-2.441 c 1.209,-3.61 6.953,-20.174 10.913,-31.474 l 3.467,-9.892 0.101,21.903 0.101,21.904 h 3.512 3.512 v -27.148 -27.149 h -4.854 -4.855 l -0.762,2.051 c -0.419,1.128 -1.501,4.221 -2.404,6.874 -0.903,2.652 -2.961,8.629 -4.572,13.281 -1.612,4.652 -3.979,11.622 -5.261,15.489 -2.267,6.838 -3.05,8.613 -3.094,7.012 -0.011,-0.419 -3.323,-10.605 -7.36,-22.637 l -7.34,-21.875 -5.53,-0.108 -5.53,-0.108 v 27.159 m 62.89,-0.016 v 27.204 l 3.614,-0.112 3.613,-0.112 0.104,-10.789 0.103,-10.79 9.662,-0.214 c 10.317,-0.228 12.928,-0.609 16.408,-2.39 9.835,-5.032 10.041,-22.01 0.333,-27.528 -3.224,-1.833 -5.407,-2.081 -20.067,-2.283 l -13.77,-0.19 v 27.204 m 69.711,-26.634 c -0.102,0.269 -0.141,12.442 -0.085,27.051 l 0.101,26.563 3.613,0.112 3.614,0.112 v -12.319 -12.319 h 12.695 12.695 v -3.321 -3.32 h -12.695 -12.695 v -8.203 -8.203 h 14.648 14.648 v -3.321 -3.32 h -18.176 c -14.181,0 -18.217,0.107 -18.363,0.488 m -41.574,7.013 c 5.873,2.516 7.195,11.91 2.211,15.711 -2.651,2.022 -4.07,2.276 -13.844,2.475 l -9.082,0.185 v -9.666 -9.666 l 9.668,0.185 c 7.436,0.142 9.987,0.321 11.047,0.776 m 97.059,7.112 c -10.841,2.686 -16.423,16.207 -11.948,28.939 5.844,16.628 31.276,14.711 34.788,-2.622 3.504,-17.294 -7.604,-30.092 -22.84,-26.317 m 42.846,-0.271 c -0.954,0.182 -3.646,2.629 -5.065,4.603 l -0.842,1.172 -0.013,-2.636 -0.012,-2.637 h -3.129 -3.128 l 0.101,19.629 0.101,19.629 h 3.32 3.321 l 0.209,-12.891 c 0.197,-12.142 0.26,-13.017 1.078,-15.072 1.791,-4.497 5.816,-6.124 9.935,-4.016 1.187,0.607 1.073,0.763 2.835,-3.879 0.838,-2.209 0.746,-2.349 -2.254,-3.403 -2.07,-0.728 -4.341,-0.903 -6.457,-0.499 m 26.216,0.448 c -2.426,0.838 -4.901,2.488 -6.196,4.131 l -0.944,1.196 -0.004,-2.653 -0.004,-2.653 -3.028,0.114 -3.027,0.114 v 19.531 19.532 l 3.418,0.113 3.418,0.112 0.02,-11.441 c 0.032,-18.612 0.964,-21.204 8.109,-22.559 7.142,-1.355 7.908,0.568 8.01,20.103 l 0.072,13.672 3.418,0.113 3.418,0.112 v -11.857 c 0,-12.274 0.274,-15.336 1.609,-17.951 2.036,-3.993 8.551,-5.697 12.007,-3.142 2.319,1.713 2.36,2.032 2.381,18.189 l 0.019,14.761 3.417,-0.112 3.418,-0.113 v -15.821 -15.82 l -0.933,-2.065 c -3.415,-7.557 -14.596,-8.656 -20.894,-2.053 l -2.147,2.251 -0.439,-1.062 c -1.82,-4.393 -9.319,-6.746 -15.118,-4.742 m 57.83,-0.348 c -8.083,1.734 -12.345,9.019 -9.032,15.441 1.98,3.838 4.658,5.247 14.855,7.815 7.845,1.975 9.781,3.954 7.755,7.926 -3.126,6.128 -15.508,4.237 -17.581,-2.684 l -0.491,-1.638 -2.322,0.242 c -4.161,0.435 -4.374,0.547 -4.113,2.152 2.479,15.281 30.93,15.142 32.199,-0.157 0.63,-7.597 -1.879,-9.527 -18.279,-14.066 -4.71,-1.303 -6.215,-2.49 -6.238,-4.92 -0.06,-6.661 14.542,-6.14 16.219,0.579 0.247,0.989 0.408,1.085 1.495,0.892 0.67,-0.118 2.16,-0.334 3.311,-0.48 l 2.091,-0.265 -0.253,-1.585 c -1.101,-6.882 -10.342,-11.241 -19.616,-9.252 m -118.388,5.949 c 9.934,2.976 10.498,23.61 0.763,27.916 -8.45,3.737 -15.083,-2.294 -15.11,-13.737 -0.026,-11.088 5.718,-16.765 14.347,-14.179"
       stroke="none"
       fill="#14447c"
       fill-rule="evenodd" />
    <path
       id="path2"
       d=""
       stroke="none"
       fill="#0c446c"
       fill-rule="evenodd" />
    <path
       id="path3"
       d=""
       stroke="none"
       fill="#103c6c"
       fill-rule="evenodd" />
    <path
       id="path4"
       d="m 195.478,338.672 c 0,4.619 0.057,6.509 0.126,4.199 0.069,-2.309 0.069,-6.089 0,-8.398 -0.069,-2.31 -0.126,-0.42 -0.126,4.199 m 0.008,26.953 c 0,6.768 0.054,9.536 0.119,6.152 0.065,-3.383 0.065,-8.921 0,-12.304 -0.065,-3.384 -0.119,-0.616 -0.119,6.152"
       stroke="none"
       fill="#144070"
       fill-rule="evenodd" />
    <path
       id="path5"
       d=""
       stroke="none"
       fill="#0c3c74"
       fill-rule="evenodd" />
    <path
       id="path6"
       d=""
       stroke="none"
       fill="#103c6c"
       fill-rule="evenodd" />
  </g>
</svg>
